<mxfile host="app.diagrams.net" agent="Mozilla/5.0 (Windows NT 10.0; Win64; x64) AppleWebKit/537.36 (KHTML, like Gecko) Chrome/135.0.0.0 Safari/537.36" version="26.2.9">
  <diagram name="Page-1" id="utq9qPu_AWYzZjWXuFNS">
    <mxGraphModel dx="2433" dy="1232" grid="1" gridSize="10" guides="1" tooltips="1" connect="1" arrows="1" fold="1" page="1" pageScale="1" pageWidth="4681" pageHeight="3300" math="0" shadow="0">
      <root>
        <mxCell id="0" />
        <mxCell id="1" parent="0" />
        <mxCell id="DO8Ps27mjezgXxE4EoIR-19" value="«Component»&lt;br&gt;&lt;strong style=&quot;background-color: initial;&quot; data-end=&quot;952&quot; data-start=&quot;931&quot;&gt;Presentation Tier&lt;/strong&gt;" style="html=1;whiteSpace=wrap;align=left;gradientColor=none;verticalAlign=top;" parent="1" vertex="1">
          <mxGeometry x="445" y="1000" width="1655" height="220" as="geometry" />
        </mxCell>
        <mxCell id="DO8Ps27mjezgXxE4EoIR-20" value="«Component»&lt;br&gt;&lt;strong style=&quot;background-color: initial;&quot; data-end=&quot;952&quot; data-start=&quot;931&quot;&gt;Event Handler Tier&lt;/strong&gt;" style="html=1;whiteSpace=wrap;align=left;gradientColor=none;verticalAlign=top;" parent="1" vertex="1">
          <mxGeometry x="2790" y="620" width="1500" height="230" as="geometry" />
        </mxCell>
        <mxCell id="DO8Ps27mjezgXxE4EoIR-21" value="«Component»&lt;br&gt;&lt;strong style=&quot;background-color: initial;&quot; data-end=&quot;952&quot; data-start=&quot;931&quot;&gt;Backend API (PAWA)&amp;nbsp;&lt;/strong&gt;" style="html=1;whiteSpace=wrap;align=left;gradientColor=none;verticalAlign=top;" parent="1" vertex="1">
          <mxGeometry x="820" y="1430" width="450" height="560" as="geometry" />
        </mxCell>
        <mxCell id="DO8Ps27mjezgXxE4EoIR-23" value="«Component»&lt;br&gt;&lt;b&gt;Registration Page&lt;/b&gt;" style="html=1;dropTarget=0;whiteSpace=wrap;" parent="1" vertex="1">
          <mxGeometry x="530" y="1030" width="180" height="90" as="geometry" />
        </mxCell>
        <mxCell id="DO8Ps27mjezgXxE4EoIR-24" value="" style="shape=module;jettyWidth=8;jettyHeight=4;" parent="DO8Ps27mjezgXxE4EoIR-23" vertex="1">
          <mxGeometry x="1" width="20" height="20" relative="1" as="geometry">
            <mxPoint x="-27" y="7" as="offset" />
          </mxGeometry>
        </mxCell>
        <mxCell id="DO8Ps27mjezgXxE4EoIR-27" value="«Component»&lt;br&gt;&lt;b&gt;Metro Line Search Page&lt;/b&gt;" style="html=1;dropTarget=0;whiteSpace=wrap;" parent="1" vertex="1">
          <mxGeometry x="990" y="1030" width="180" height="90" as="geometry" />
        </mxCell>
        <mxCell id="DO8Ps27mjezgXxE4EoIR-28" value="" style="shape=module;jettyWidth=8;jettyHeight=4;" parent="DO8Ps27mjezgXxE4EoIR-27" vertex="1">
          <mxGeometry x="1" width="20" height="20" relative="1" as="geometry">
            <mxPoint x="-27" y="7" as="offset" />
          </mxGeometry>
        </mxCell>
        <mxCell id="DO8Ps27mjezgXxE4EoIR-29" value="«Component»&lt;br&gt;&lt;b&gt;Ticket Purchase Page&lt;/b&gt;" style="html=1;dropTarget=0;whiteSpace=wrap;" parent="1" vertex="1">
          <mxGeometry x="1190" y="1030" width="180" height="90" as="geometry" />
        </mxCell>
        <mxCell id="DO8Ps27mjezgXxE4EoIR-30" value="" style="shape=module;jettyWidth=8;jettyHeight=4;" parent="DO8Ps27mjezgXxE4EoIR-29" vertex="1">
          <mxGeometry x="1" width="20" height="20" relative="1" as="geometry">
            <mxPoint x="-27" y="7" as="offset" />
          </mxGeometry>
        </mxCell>
        <mxCell id="DO8Ps27mjezgXxE4EoIR-31" value="«Component»&lt;br&gt;&lt;b&gt;Ticket History Page&lt;/b&gt;" style="html=1;dropTarget=0;whiteSpace=wrap;" parent="1" vertex="1">
          <mxGeometry x="1400" y="1030" width="180" height="90" as="geometry" />
        </mxCell>
        <mxCell id="DO8Ps27mjezgXxE4EoIR-32" value="" style="shape=module;jettyWidth=8;jettyHeight=4;" parent="DO8Ps27mjezgXxE4EoIR-31" vertex="1">
          <mxGeometry x="1" width="20" height="20" relative="1" as="geometry">
            <mxPoint x="-27" y="7" as="offset" />
          </mxGeometry>
        </mxCell>
        <mxCell id="DO8Ps27mjezgXxE4EoIR-33" value="«Component»&lt;br&gt;&lt;b&gt;Profile Page&lt;/b&gt;" style="html=1;dropTarget=0;whiteSpace=wrap;" parent="1" vertex="1">
          <mxGeometry x="1630" y="1030" width="180" height="90" as="geometry" />
        </mxCell>
        <mxCell id="DO8Ps27mjezgXxE4EoIR-34" value="" style="shape=module;jettyWidth=8;jettyHeight=4;" parent="DO8Ps27mjezgXxE4EoIR-33" vertex="1">
          <mxGeometry x="1" width="20" height="20" relative="1" as="geometry">
            <mxPoint x="-27" y="7" as="offset" />
          </mxGeometry>
        </mxCell>
        <mxCell id="DO8Ps27mjezgXxE4EoIR-35" value="«Component»&lt;br&gt;&lt;b&gt;E-Wallet Page&lt;/b&gt;" style="html=1;dropTarget=0;whiteSpace=wrap;" parent="1" vertex="1">
          <mxGeometry x="1850" y="1030" width="180" height="90" as="geometry" />
        </mxCell>
        <mxCell id="DO8Ps27mjezgXxE4EoIR-36" value="" style="shape=module;jettyWidth=8;jettyHeight=4;" parent="DO8Ps27mjezgXxE4EoIR-35" vertex="1">
          <mxGeometry x="1" width="20" height="20" relative="1" as="geometry">
            <mxPoint x="-27" y="7" as="offset" />
          </mxGeometry>
        </mxCell>
        <mxCell id="DO8Ps27mjezgXxE4EoIR-37" value="«Component»&lt;br&gt;&lt;b&gt;Button&lt;/b&gt;" style="html=1;dropTarget=0;whiteSpace=wrap;" parent="1" vertex="1">
          <mxGeometry x="2847.5" y="715" width="150" height="70" as="geometry" />
        </mxCell>
        <mxCell id="DO8Ps27mjezgXxE4EoIR-38" value="" style="shape=module;jettyWidth=8;jettyHeight=4;" parent="DO8Ps27mjezgXxE4EoIR-37" vertex="1">
          <mxGeometry x="1" width="20" height="20" relative="1" as="geometry">
            <mxPoint x="-27" y="7" as="offset" />
          </mxGeometry>
        </mxCell>
        <mxCell id="DO8Ps27mjezgXxE4EoIR-39" value="«Component»&lt;br&gt;&lt;b&gt;Search Bar&lt;/b&gt;" style="html=1;dropTarget=0;whiteSpace=wrap;" parent="1" vertex="1">
          <mxGeometry x="3440" y="715" width="150" height="70" as="geometry" />
        </mxCell>
        <mxCell id="DO8Ps27mjezgXxE4EoIR-40" value="" style="shape=module;jettyWidth=8;jettyHeight=4;" parent="DO8Ps27mjezgXxE4EoIR-39" vertex="1">
          <mxGeometry x="1" width="20" height="20" relative="1" as="geometry">
            <mxPoint x="-27" y="7" as="offset" />
          </mxGeometry>
        </mxCell>
        <mxCell id="DO8Ps27mjezgXxE4EoIR-41" value="«Component»&lt;br&gt;&lt;b&gt;Modal&lt;/b&gt;" style="html=1;dropTarget=0;whiteSpace=wrap;" parent="1" vertex="1">
          <mxGeometry x="4020" y="710" width="150" height="70" as="geometry" />
        </mxCell>
        <mxCell id="DO8Ps27mjezgXxE4EoIR-42" value="" style="shape=module;jettyWidth=8;jettyHeight=4;" parent="DO8Ps27mjezgXxE4EoIR-41" vertex="1">
          <mxGeometry x="1" width="20" height="20" relative="1" as="geometry">
            <mxPoint x="-27" y="7" as="offset" />
          </mxGeometry>
        </mxCell>
        <mxCell id="DO8Ps27mjezgXxE4EoIR-43" value="«Component»&lt;br&gt;&lt;b&gt;Form Inputs&lt;/b&gt;" style="html=1;dropTarget=0;whiteSpace=wrap;" parent="1" vertex="1">
          <mxGeometry x="3037.5" y="715" width="150" height="70" as="geometry" />
        </mxCell>
        <mxCell id="DO8Ps27mjezgXxE4EoIR-44" value="" style="shape=module;jettyWidth=8;jettyHeight=4;" parent="DO8Ps27mjezgXxE4EoIR-43" vertex="1">
          <mxGeometry x="1" width="20" height="20" relative="1" as="geometry">
            <mxPoint x="-27" y="7" as="offset" />
          </mxGeometry>
        </mxCell>
        <mxCell id="DO8Ps27mjezgXxE4EoIR-45" value="«Component»&lt;br&gt;&lt;div&gt;&lt;b&gt;Dropdown Menu&lt;/b&gt;&lt;/div&gt;" style="html=1;dropTarget=0;whiteSpace=wrap;" parent="1" vertex="1">
          <mxGeometry x="3227.5" y="715" width="150" height="70" as="geometry" />
        </mxCell>
        <mxCell id="DO8Ps27mjezgXxE4EoIR-46" value="" style="shape=module;jettyWidth=8;jettyHeight=4;" parent="DO8Ps27mjezgXxE4EoIR-45" vertex="1">
          <mxGeometry x="1" width="20" height="20" relative="1" as="geometry">
            <mxPoint x="-27" y="7" as="offset" />
          </mxGeometry>
        </mxCell>
        <mxCell id="DO8Ps27mjezgXxE4EoIR-47" value="«Component»&lt;br&gt;&lt;div&gt;&lt;b&gt;Table&lt;/b&gt;&lt;/div&gt;" style="html=1;dropTarget=0;whiteSpace=wrap;" parent="1" vertex="1">
          <mxGeometry x="3820" y="715" width="150" height="70" as="geometry" />
        </mxCell>
        <mxCell id="DO8Ps27mjezgXxE4EoIR-48" value="" style="shape=module;jettyWidth=8;jettyHeight=4;" parent="DO8Ps27mjezgXxE4EoIR-47" vertex="1">
          <mxGeometry x="1" width="20" height="20" relative="1" as="geometry">
            <mxPoint x="-27" y="7" as="offset" />
          </mxGeometry>
        </mxCell>
        <mxCell id="DO8Ps27mjezgXxE4EoIR-49" value="«Component»&lt;br&gt;&lt;div&gt;&lt;b&gt;Ticket Cart&lt;/b&gt;&lt;/div&gt;" style="html=1;dropTarget=0;whiteSpace=wrap;" parent="1" vertex="1">
          <mxGeometry x="3623.75" y="715" width="150" height="70" as="geometry" />
        </mxCell>
        <mxCell id="DO8Ps27mjezgXxE4EoIR-50" value="" style="shape=module;jettyWidth=8;jettyHeight=4;" parent="DO8Ps27mjezgXxE4EoIR-49" vertex="1">
          <mxGeometry x="1" width="20" height="20" relative="1" as="geometry">
            <mxPoint x="-27" y="7" as="offset" />
          </mxGeometry>
        </mxCell>
        <mxCell id="DO8Ps27mjezgXxE4EoIR-66" value="Passenger" style="shape=umlActor;verticalLabelPosition=bottom;verticalAlign=top;html=1;" parent="1" vertex="1">
          <mxGeometry x="1250" y="820" width="40" height="65" as="geometry" />
        </mxCell>
        <mxCell id="DO8Ps27mjezgXxE4EoIR-72" value="" style="ellipse;whiteSpace=wrap;html=1;align=center;aspect=fixed;fillColor=none;strokeColor=none;resizable=0;perimeter=centerPerimeter;rotatable=0;allowArrows=0;points=[];outlineConnect=1;" parent="1" vertex="1">
          <mxGeometry x="1260" y="1220" width="10" height="10" as="geometry" />
        </mxCell>
        <mxCell id="DO8Ps27mjezgXxE4EoIR-81" value="" style="ellipse;whiteSpace=wrap;html=1;align=center;aspect=fixed;fillColor=none;strokeColor=none;resizable=0;perimeter=centerPerimeter;rotatable=0;allowArrows=0;points=[];outlineConnect=1;" parent="1" vertex="1">
          <mxGeometry x="2910" y="725" width="10" height="10" as="geometry" />
        </mxCell>
        <mxCell id="DO8Ps27mjezgXxE4EoIR-83" value="" style="rounded=0;whiteSpace=wrap;html=1;" parent="1" vertex="1">
          <mxGeometry x="3077.5" y="695" width="60" height="20" as="geometry" />
        </mxCell>
        <mxCell id="DO8Ps27mjezgXxE4EoIR-84" value="" style="shape=providedRequiredInterface;html=1;verticalLabelPosition=bottom;sketch=0;rotation=90;" parent="1" vertex="1">
          <mxGeometry x="3102.5" y="685" width="10" height="10" as="geometry" />
        </mxCell>
        <mxCell id="DO8Ps27mjezgXxE4EoIR-87" value="«Component»&lt;br&gt;&lt;strong data-end=&quot;1261&quot; data-start=&quot;1239&quot;&gt;Authentication API&lt;/strong&gt;" style="html=1;dropTarget=0;whiteSpace=wrap;" parent="1" vertex="1">
          <mxGeometry x="860" y="1505" width="130" height="60" as="geometry" />
        </mxCell>
        <mxCell id="DO8Ps27mjezgXxE4EoIR-88" value="" style="shape=module;jettyWidth=8;jettyHeight=4;" parent="DO8Ps27mjezgXxE4EoIR-87" vertex="1">
          <mxGeometry x="1" width="20" height="20" relative="1" as="geometry">
            <mxPoint x="-27" y="7" as="offset" />
          </mxGeometry>
        </mxCell>
        <mxCell id="DO8Ps27mjezgXxE4EoIR-89" value="«Component»&lt;br&gt;&lt;strong data-end=&quot;1261&quot; data-start=&quot;1239&quot;&gt;Registration  API&lt;/strong&gt;" style="html=1;dropTarget=0;whiteSpace=wrap;" parent="1" vertex="1">
          <mxGeometry x="860" y="1595" width="130" height="60" as="geometry" />
        </mxCell>
        <mxCell id="DO8Ps27mjezgXxE4EoIR-90" value="" style="shape=module;jettyWidth=8;jettyHeight=4;" parent="DO8Ps27mjezgXxE4EoIR-89" vertex="1">
          <mxGeometry x="1" width="20" height="20" relative="1" as="geometry">
            <mxPoint x="-27" y="7" as="offset" />
          </mxGeometry>
        </mxCell>
        <mxCell id="DO8Ps27mjezgXxE4EoIR-91" value="«Component»&lt;br&gt;&lt;strong data-end=&quot;1261&quot; data-start=&quot;1239&quot;&gt;Ticket API&lt;/strong&gt;" style="html=1;dropTarget=0;whiteSpace=wrap;" parent="1" vertex="1">
          <mxGeometry x="860" y="1680" width="130" height="60" as="geometry" />
        </mxCell>
        <mxCell id="DO8Ps27mjezgXxE4EoIR-92" value="" style="shape=module;jettyWidth=8;jettyHeight=4;" parent="DO8Ps27mjezgXxE4EoIR-91" vertex="1">
          <mxGeometry x="1" width="20" height="20" relative="1" as="geometry">
            <mxPoint x="-27" y="7" as="offset" />
          </mxGeometry>
        </mxCell>
        <mxCell id="DO8Ps27mjezgXxE4EoIR-96" value="«Component»&lt;br&gt;&lt;strong data-end=&quot;1261&quot; data-start=&quot;1239&quot;&gt;Metro Line  API (OPWA API)&lt;/strong&gt;" style="html=1;dropTarget=0;whiteSpace=wrap;" parent="1" vertex="1">
          <mxGeometry x="860" y="1775" width="160" height="65" as="geometry" />
        </mxCell>
        <mxCell id="DO8Ps27mjezgXxE4EoIR-97" value="" style="shape=module;jettyWidth=8;jettyHeight=4;" parent="DO8Ps27mjezgXxE4EoIR-96" vertex="1">
          <mxGeometry x="1" width="20" height="20" relative="1" as="geometry">
            <mxPoint x="-27" y="7" as="offset" />
          </mxGeometry>
        </mxCell>
        <mxCell id="DO8Ps27mjezgXxE4EoIR-98" value="«Component»&lt;br&gt;&lt;strong data-end=&quot;1261&quot; data-start=&quot;1239&quot;&gt;E-Wallet  API&lt;/strong&gt;" style="html=1;dropTarget=0;whiteSpace=wrap;" parent="1" vertex="1">
          <mxGeometry x="860" y="1880" width="130" height="60" as="geometry" />
        </mxCell>
        <mxCell id="DO8Ps27mjezgXxE4EoIR-99" value="" style="shape=module;jettyWidth=8;jettyHeight=4;" parent="DO8Ps27mjezgXxE4EoIR-98" vertex="1">
          <mxGeometry x="1" width="20" height="20" relative="1" as="geometry">
            <mxPoint x="-27" y="7" as="offset" />
          </mxGeometry>
        </mxCell>
        <mxCell id="DO8Ps27mjezgXxE4EoIR-100" value="«Component»&lt;br&gt;&lt;strong data-end=&quot;1261&quot; data-start=&quot;1239&quot;&gt;Profile API&lt;/strong&gt;" style="html=1;dropTarget=0;whiteSpace=wrap;" parent="1" vertex="1">
          <mxGeometry x="1100.0000000000005" y="1505" width="130" height="60" as="geometry" />
        </mxCell>
        <mxCell id="DO8Ps27mjezgXxE4EoIR-101" value="" style="shape=module;jettyWidth=8;jettyHeight=4;" parent="DO8Ps27mjezgXxE4EoIR-100" vertex="1">
          <mxGeometry x="1" width="20" height="20" relative="1" as="geometry">
            <mxPoint x="-27" y="7" as="offset" />
          </mxGeometry>
        </mxCell>
        <mxCell id="DO8Ps27mjezgXxE4EoIR-102" value="«Component»&lt;br&gt;&lt;strong data-end=&quot;1261&quot; data-start=&quot;1239&quot;&gt;Payment API&lt;/strong&gt;" style="html=1;dropTarget=0;whiteSpace=wrap;" parent="1" vertex="1">
          <mxGeometry x="1100.0000000000005" y="1685" width="130" height="60" as="geometry" />
        </mxCell>
        <mxCell id="DO8Ps27mjezgXxE4EoIR-103" value="" style="shape=module;jettyWidth=8;jettyHeight=4;" parent="DO8Ps27mjezgXxE4EoIR-102" vertex="1">
          <mxGeometry x="1" width="20" height="20" relative="1" as="geometry">
            <mxPoint x="-27" y="7" as="offset" />
          </mxGeometry>
        </mxCell>
        <mxCell id="DO8Ps27mjezgXxE4EoIR-107" value="«Component»&lt;br&gt;&lt;strong data-end=&quot;1261&quot; data-start=&quot;1239&quot;&gt;Metro Suspension Alert API (OPWA API)&lt;/strong&gt;" style="html=1;dropTarget=0;whiteSpace=wrap;" parent="1" vertex="1">
          <mxGeometry x="1100" y="1785" width="130" height="90" as="geometry" />
        </mxCell>
        <mxCell id="DO8Ps27mjezgXxE4EoIR-108" value="" style="shape=module;jettyWidth=8;jettyHeight=4;" parent="DO8Ps27mjezgXxE4EoIR-107" vertex="1">
          <mxGeometry x="1" width="20" height="20" relative="1" as="geometry">
            <mxPoint x="-27" y="7" as="offset" />
          </mxGeometry>
        </mxCell>
        <mxCell id="DO8Ps27mjezgXxE4EoIR-111" value="«Component»&lt;br&gt;&lt;strong data-end=&quot;1261&quot; data-start=&quot;1239&quot;&gt;Google Login API&lt;/strong&gt;" style="html=1;dropTarget=0;whiteSpace=wrap;" parent="1" vertex="1">
          <mxGeometry x="1100.0000000000005" y="1895" width="120" height="80" as="geometry" />
        </mxCell>
        <mxCell id="DO8Ps27mjezgXxE4EoIR-112" value="" style="shape=module;jettyWidth=8;jettyHeight=4;" parent="DO8Ps27mjezgXxE4EoIR-111" vertex="1">
          <mxGeometry x="1" width="20" height="20" relative="1" as="geometry">
            <mxPoint x="-27" y="7" as="offset" />
          </mxGeometry>
        </mxCell>
        <mxCell id="DO8Ps27mjezgXxE4EoIR-123" value="" style="rounded=0;whiteSpace=wrap;html=1;" parent="1" vertex="1">
          <mxGeometry x="2892.5" y="695" width="60" height="20" as="geometry" />
        </mxCell>
        <mxCell id="DO8Ps27mjezgXxE4EoIR-124" value="" style="shape=providedRequiredInterface;html=1;verticalLabelPosition=bottom;sketch=0;rotation=90;" parent="1" vertex="1">
          <mxGeometry x="2917.5" y="685" width="10" height="10" as="geometry" />
        </mxCell>
        <mxCell id="DO8Ps27mjezgXxE4EoIR-25" value="«Component»&lt;br&gt;&lt;b&gt;Login Page&lt;/b&gt;" style="html=1;dropTarget=0;whiteSpace=wrap;" parent="1" vertex="1">
          <mxGeometry x="760" y="1030" width="180" height="90" as="geometry" />
        </mxCell>
        <mxCell id="DO8Ps27mjezgXxE4EoIR-26" value="" style="shape=module;jettyWidth=8;jettyHeight=4;" parent="DO8Ps27mjezgXxE4EoIR-25" vertex="1">
          <mxGeometry x="1" width="20" height="20" relative="1" as="geometry">
            <mxPoint x="-27" y="7" as="offset" />
          </mxGeometry>
        </mxCell>
        <mxCell id="DO8Ps27mjezgXxE4EoIR-195" value="«Component»&lt;br&gt;&lt;strong data-end=&quot;1261&quot; data-start=&quot;1239&quot;&gt;Search&amp;nbsp; API&lt;/strong&gt;" style="html=1;dropTarget=0;whiteSpace=wrap;" parent="1" vertex="1">
          <mxGeometry x="1100" y="1595" width="130" height="60" as="geometry" />
        </mxCell>
        <mxCell id="DO8Ps27mjezgXxE4EoIR-196" value="" style="shape=module;jettyWidth=8;jettyHeight=4;" parent="DO8Ps27mjezgXxE4EoIR-195" vertex="1">
          <mxGeometry x="1" width="20" height="20" relative="1" as="geometry">
            <mxPoint x="-27" y="7" as="offset" />
          </mxGeometry>
        </mxCell>
        <mxCell id="DO8Ps27mjezgXxE4EoIR-199" value="" style="rounded=0;whiteSpace=wrap;html=1;" parent="1" vertex="1">
          <mxGeometry x="590" y="1120" width="60" height="30" as="geometry" />
        </mxCell>
        <mxCell id="DO8Ps27mjezgXxE4EoIR-200" value="" style="rounded=0;whiteSpace=wrap;html=1;" parent="1" vertex="1">
          <mxGeometry x="820" y="1120" width="60" height="30" as="geometry" />
        </mxCell>
        <mxCell id="DO8Ps27mjezgXxE4EoIR-201" value="" style="rounded=0;whiteSpace=wrap;html=1;" parent="1" vertex="1">
          <mxGeometry x="1050" y="1120" width="60" height="30" as="geometry" />
        </mxCell>
        <mxCell id="DO8Ps27mjezgXxE4EoIR-276" style="edgeStyle=orthogonalEdgeStyle;rounded=0;orthogonalLoop=1;jettySize=auto;html=1;exitX=0.75;exitY=1;exitDx=0;exitDy=0;entryX=0;entryY=0.5;entryDx=0;entryDy=0;entryPerimeter=0;endArrow=none;endFill=0;dashed=1;" parent="1" source="DO8Ps27mjezgXxE4EoIR-202" target="DO8Ps27mjezgXxE4EoIR-246" edge="1">
          <mxGeometry relative="1" as="geometry">
            <mxPoint x="2880" y="1290" as="targetPoint" />
            <Array as="points">
              <mxPoint x="1295" y="1310" />
              <mxPoint x="1420" y="1310" />
              <mxPoint x="1420" y="1715" />
            </Array>
          </mxGeometry>
        </mxCell>
        <mxCell id="DO8Ps27mjezgXxE4EoIR-277" value="payment processing" style="edgeLabel;html=1;align=center;verticalAlign=middle;resizable=0;points=[];" parent="DO8Ps27mjezgXxE4EoIR-276" vertex="1" connectable="0">
          <mxGeometry x="0.5573" y="-1" relative="1" as="geometry">
            <mxPoint x="11" y="-211" as="offset" />
          </mxGeometry>
        </mxCell>
        <mxCell id="DO8Ps27mjezgXxE4EoIR-202" value="" style="rounded=0;whiteSpace=wrap;html=1;" parent="1" vertex="1">
          <mxGeometry x="1250" y="1120" width="60" height="30" as="geometry" />
        </mxCell>
        <mxCell id="DO8Ps27mjezgXxE4EoIR-203" value="" style="rounded=0;whiteSpace=wrap;html=1;" parent="1" vertex="1">
          <mxGeometry x="1460" y="1120" width="60" height="30" as="geometry" />
        </mxCell>
        <mxCell id="DO8Ps27mjezgXxE4EoIR-204" value="" style="rounded=0;whiteSpace=wrap;html=1;" parent="1" vertex="1">
          <mxGeometry x="1690" y="1120" width="60" height="30" as="geometry" />
        </mxCell>
        <mxCell id="DO8Ps27mjezgXxE4EoIR-205" value="" style="rounded=0;whiteSpace=wrap;html=1;" parent="1" vertex="1">
          <mxGeometry x="1910" y="1120" width="60" height="30" as="geometry" />
        </mxCell>
        <mxCell id="DO8Ps27mjezgXxE4EoIR-206" value="" style="shape=providedRequiredInterface;html=1;verticalLabelPosition=bottom;sketch=0;rotation=90;" parent="1" vertex="1">
          <mxGeometry x="3297.5" y="685" width="10" height="10" as="geometry" />
        </mxCell>
        <mxCell id="DO8Ps27mjezgXxE4EoIR-207" value="" style="rounded=0;whiteSpace=wrap;html=1;" parent="1" vertex="1">
          <mxGeometry x="3272.5" y="695" width="60" height="20" as="geometry" />
        </mxCell>
        <mxCell id="DO8Ps27mjezgXxE4EoIR-208" value="" style="shape=providedRequiredInterface;html=1;verticalLabelPosition=bottom;sketch=0;rotation=90;" parent="1" vertex="1">
          <mxGeometry x="3510" y="685" width="10" height="10" as="geometry" />
        </mxCell>
        <mxCell id="DO8Ps27mjezgXxE4EoIR-209" value="" style="rounded=0;whiteSpace=wrap;html=1;" parent="1" vertex="1">
          <mxGeometry x="3485" y="695" width="60" height="20" as="geometry" />
        </mxCell>
        <mxCell id="DO8Ps27mjezgXxE4EoIR-224" value="" style="shape=providedRequiredInterface;html=1;verticalLabelPosition=bottom;sketch=0;rotation=0;" parent="1" vertex="1">
          <mxGeometry x="830" y="1530" width="10" height="10" as="geometry" />
        </mxCell>
        <mxCell id="DO8Ps27mjezgXxE4EoIR-225" value="" style="rounded=0;whiteSpace=wrap;html=1;" parent="1" vertex="1">
          <mxGeometry x="840" y="1525" width="20" height="20" as="geometry" />
        </mxCell>
        <mxCell id="DO8Ps27mjezgXxE4EoIR-233" style="edgeStyle=orthogonalEdgeStyle;rounded=0;orthogonalLoop=1;jettySize=auto;html=1;exitX=0.323;exitY=1.084;exitDx=0;exitDy=0;entryX=0;entryY=0.5;entryDx=0;entryDy=0;entryPerimeter=0;endArrow=none;endFill=0;dashed=1;exitPerimeter=0;" parent="1" source="DO8Ps27mjezgXxE4EoIR-200" target="DO8Ps27mjezgXxE4EoIR-224" edge="1">
          <mxGeometry relative="1" as="geometry">
            <Array as="points">
              <mxPoint x="839" y="1300" />
              <mxPoint x="750" y="1300" />
              <mxPoint x="750" y="1535" />
            </Array>
          </mxGeometry>
        </mxCell>
        <mxCell id="DO8Ps27mjezgXxE4EoIR-322" value="send data for verification" style="edgeLabel;html=1;align=center;verticalAlign=middle;resizable=0;points=[];" parent="DO8Ps27mjezgXxE4EoIR-233" vertex="1" connectable="0">
          <mxGeometry x="0.0242" y="1" relative="1" as="geometry">
            <mxPoint as="offset" />
          </mxGeometry>
        </mxCell>
        <mxCell id="DO8Ps27mjezgXxE4EoIR-234" value="" style="shape=providedRequiredInterface;html=1;verticalLabelPosition=bottom;sketch=0;rotation=0;" parent="1" vertex="1">
          <mxGeometry x="830" y="1620" width="10" height="10" as="geometry" />
        </mxCell>
        <mxCell id="DO8Ps27mjezgXxE4EoIR-235" value="" style="rounded=0;whiteSpace=wrap;html=1;" parent="1" vertex="1">
          <mxGeometry x="840" y="1615" width="20" height="20" as="geometry" />
        </mxCell>
        <mxCell id="DO8Ps27mjezgXxE4EoIR-236" value="" style="shape=providedRequiredInterface;html=1;verticalLabelPosition=bottom;sketch=0;rotation=0;" parent="1" vertex="1">
          <mxGeometry x="830" y="1705" width="10" height="10" as="geometry" />
        </mxCell>
        <mxCell id="DO8Ps27mjezgXxE4EoIR-237" value="" style="rounded=0;whiteSpace=wrap;html=1;" parent="1" vertex="1">
          <mxGeometry x="840" y="1700" width="20" height="20" as="geometry" />
        </mxCell>
        <mxCell id="DO8Ps27mjezgXxE4EoIR-238" value="" style="shape=providedRequiredInterface;html=1;verticalLabelPosition=bottom;sketch=0;rotation=0;" parent="1" vertex="1">
          <mxGeometry x="830" y="1800" width="10" height="10" as="geometry" />
        </mxCell>
        <mxCell id="DO8Ps27mjezgXxE4EoIR-239" value="" style="rounded=0;whiteSpace=wrap;html=1;" parent="1" vertex="1">
          <mxGeometry x="840" y="1795" width="20" height="20" as="geometry" />
        </mxCell>
        <mxCell id="DO8Ps27mjezgXxE4EoIR-240" value="" style="shape=providedRequiredInterface;html=1;verticalLabelPosition=bottom;sketch=0;rotation=0;" parent="1" vertex="1">
          <mxGeometry x="830" y="1905" width="10" height="10" as="geometry" />
        </mxCell>
        <mxCell id="DO8Ps27mjezgXxE4EoIR-241" value="" style="rounded=0;whiteSpace=wrap;html=1;" parent="1" vertex="1">
          <mxGeometry x="840" y="1900" width="20" height="20" as="geometry" />
        </mxCell>
        <mxCell id="DO8Ps27mjezgXxE4EoIR-243" value="" style="rounded=0;whiteSpace=wrap;html=1;" parent="1" vertex="1">
          <mxGeometry x="1220" y="1925" width="20" height="20" as="geometry" />
        </mxCell>
        <mxCell id="DO8Ps27mjezgXxE4EoIR-245" value="" style="rounded=0;whiteSpace=wrap;html=1;" parent="1" vertex="1">
          <mxGeometry x="1230" y="1820" width="20" height="20" as="geometry" />
        </mxCell>
        <mxCell id="DO8Ps27mjezgXxE4EoIR-246" value="" style="shape=providedRequiredInterface;html=1;verticalLabelPosition=bottom;sketch=0;rotation=-180;" parent="1" vertex="1">
          <mxGeometry x="1250" y="1710" width="10" height="10" as="geometry" />
        </mxCell>
        <mxCell id="DO8Ps27mjezgXxE4EoIR-247" value="" style="rounded=0;whiteSpace=wrap;html=1;" parent="1" vertex="1">
          <mxGeometry x="1230" y="1705" width="20" height="20" as="geometry" />
        </mxCell>
        <mxCell id="DO8Ps27mjezgXxE4EoIR-248" value="" style="shape=providedRequiredInterface;html=1;verticalLabelPosition=bottom;sketch=0;rotation=-180;" parent="1" vertex="1">
          <mxGeometry x="1250" y="1625" width="10" height="10" as="geometry" />
        </mxCell>
        <mxCell id="DO8Ps27mjezgXxE4EoIR-249" value="" style="rounded=0;whiteSpace=wrap;html=1;" parent="1" vertex="1">
          <mxGeometry x="1230" y="1620" width="20" height="20" as="geometry" />
        </mxCell>
        <mxCell id="DO8Ps27mjezgXxE4EoIR-250" value="" style="shape=providedRequiredInterface;html=1;verticalLabelPosition=bottom;sketch=0;rotation=-180;" parent="1" vertex="1">
          <mxGeometry x="1250" y="1530" width="10" height="10" as="geometry" />
        </mxCell>
        <mxCell id="DO8Ps27mjezgXxE4EoIR-251" value="" style="rounded=0;whiteSpace=wrap;html=1;" parent="1" vertex="1">
          <mxGeometry x="1230" y="1525" width="20" height="20" as="geometry" />
        </mxCell>
        <mxCell id="DO8Ps27mjezgXxE4EoIR-256" style="edgeStyle=orthogonalEdgeStyle;rounded=0;orthogonalLoop=1;jettySize=auto;html=1;exitX=0.25;exitY=1;exitDx=0;exitDy=0;entryX=0;entryY=0.5;entryDx=0;entryDy=0;entryPerimeter=0;endArrow=none;endFill=0;dashed=1;" parent="1" source="DO8Ps27mjezgXxE4EoIR-199" target="DO8Ps27mjezgXxE4EoIR-234" edge="1">
          <mxGeometry relative="1" as="geometry">
            <Array as="points">
              <mxPoint x="605" y="1525" />
              <mxPoint x="740" y="1525" />
              <mxPoint x="740" y="1625" />
            </Array>
          </mxGeometry>
        </mxCell>
        <mxCell id="DO8Ps27mjezgXxE4EoIR-321" value="send data" style="edgeLabel;html=1;align=center;verticalAlign=middle;resizable=0;points=[];" parent="DO8Ps27mjezgXxE4EoIR-256" vertex="1" connectable="0">
          <mxGeometry x="-0.5766" y="-1" relative="1" as="geometry">
            <mxPoint as="offset" />
          </mxGeometry>
        </mxCell>
        <mxCell id="DO8Ps27mjezgXxE4EoIR-260" style="edgeStyle=orthogonalEdgeStyle;rounded=0;orthogonalLoop=1;jettySize=auto;html=1;exitX=0.5;exitY=1;exitDx=0;exitDy=0;entryX=0;entryY=0.5;entryDx=0;entryDy=0;entryPerimeter=0;endArrow=none;endFill=0;dashed=1;" parent="1" source="DO8Ps27mjezgXxE4EoIR-201" target="DO8Ps27mjezgXxE4EoIR-238" edge="1">
          <mxGeometry relative="1" as="geometry">
            <Array as="points">
              <mxPoint x="1070" y="1150" />
              <mxPoint x="1070" y="1390" />
              <mxPoint x="790" y="1390" />
              <mxPoint x="790" y="1805" />
            </Array>
          </mxGeometry>
        </mxCell>
        <mxCell id="DO8Ps27mjezgXxE4EoIR-262" value="fetch data" style="edgeLabel;html=1;align=center;verticalAlign=middle;resizable=0;points=[];fontSize=9;" parent="DO8Ps27mjezgXxE4EoIR-260" vertex="1" connectable="0">
          <mxGeometry x="-0.2683" y="-3" relative="1" as="geometry">
            <mxPoint as="offset" />
          </mxGeometry>
        </mxCell>
        <mxCell id="DO8Ps27mjezgXxE4EoIR-261" style="edgeStyle=orthogonalEdgeStyle;rounded=0;orthogonalLoop=1;jettySize=auto;html=1;exitX=0.75;exitY=1;exitDx=0;exitDy=0;entryX=0;entryY=0.5;entryDx=0;entryDy=0;entryPerimeter=0;endArrow=none;endFill=0;dashed=1;" parent="1" source="DO8Ps27mjezgXxE4EoIR-201" target="DO8Ps27mjezgXxE4EoIR-248" edge="1">
          <mxGeometry relative="1" as="geometry">
            <Array as="points">
              <mxPoint x="1095" y="1330" />
              <mxPoint x="1340" y="1330" />
              <mxPoint x="1340" y="1630" />
            </Array>
          </mxGeometry>
        </mxCell>
        <mxCell id="DO8Ps27mjezgXxE4EoIR-263" value="trip searching" style="edgeLabel;html=1;align=center;verticalAlign=middle;resizable=0;points=[];fontSize=9;" parent="DO8Ps27mjezgXxE4EoIR-261" vertex="1" connectable="0">
          <mxGeometry x="-0.088" relative="1" as="geometry">
            <mxPoint x="-62" as="offset" />
          </mxGeometry>
        </mxCell>
        <mxCell id="DO8Ps27mjezgXxE4EoIR-272" style="edgeStyle=orthogonalEdgeStyle;rounded=0;orthogonalLoop=1;jettySize=auto;html=1;exitX=0.181;exitY=0.95;exitDx=0;exitDy=0;entryX=0;entryY=0.5;entryDx=0;entryDy=0;entryPerimeter=0;endArrow=none;endFill=0;dashed=1;exitPerimeter=0;" parent="1" source="DO8Ps27mjezgXxE4EoIR-202" target="DO8Ps27mjezgXxE4EoIR-236" edge="1">
          <mxGeometry relative="1" as="geometry">
            <Array as="points">
              <mxPoint x="1261" y="1390" />
              <mxPoint x="1260" y="1390" />
              <mxPoint x="1260" y="1410" />
              <mxPoint x="810" y="1410" />
              <mxPoint x="810" y="1710" />
            </Array>
          </mxGeometry>
        </mxCell>
        <mxCell id="DO8Ps27mjezgXxE4EoIR-273" value="retrive data" style="edgeLabel;html=1;align=center;verticalAlign=middle;resizable=0;points=[];" parent="DO8Ps27mjezgXxE4EoIR-272" vertex="1" connectable="0">
          <mxGeometry x="-0.0661" y="-3" relative="1" as="geometry">
            <mxPoint as="offset" />
          </mxGeometry>
        </mxCell>
        <mxCell id="DO8Ps27mjezgXxE4EoIR-274" style="edgeStyle=orthogonalEdgeStyle;rounded=0;orthogonalLoop=1;jettySize=auto;html=1;exitX=0.5;exitY=1;exitDx=0;exitDy=0;entryX=0;entryY=0.5;entryDx=0;entryDy=0;entryPerimeter=0;endArrow=none;endFill=0;dashed=1;" parent="1" source="DO8Ps27mjezgXxE4EoIR-202" target="DO8Ps27mjezgXxE4EoIR-240" edge="1">
          <mxGeometry relative="1" as="geometry">
            <Array as="points">
              <mxPoint x="1280" y="1270" />
              <mxPoint x="760" y="1270" />
              <mxPoint x="760" y="1910" />
            </Array>
          </mxGeometry>
        </mxCell>
        <mxCell id="DO8Ps27mjezgXxE4EoIR-275" value="payment process" style="edgeLabel;html=1;align=center;verticalAlign=middle;resizable=0;points=[];" parent="DO8Ps27mjezgXxE4EoIR-274" vertex="1" connectable="0">
          <mxGeometry x="-0.5981" y="3" relative="1" as="geometry">
            <mxPoint x="-133" as="offset" />
          </mxGeometry>
        </mxCell>
        <mxCell id="DO8Ps27mjezgXxE4EoIR-278" style="edgeStyle=orthogonalEdgeStyle;rounded=0;orthogonalLoop=1;jettySize=auto;html=1;exitX=0.25;exitY=1;exitDx=0;exitDy=0;entryX=0;entryY=0.5;entryDx=0;entryDy=0;entryPerimeter=0;endArrow=none;endFill=0;dashed=1;" parent="1" source="DO8Ps27mjezgXxE4EoIR-203" target="DO8Ps27mjezgXxE4EoIR-236" edge="1">
          <mxGeometry relative="1" as="geometry">
            <Array as="points">
              <mxPoint x="1475" y="1300" />
              <mxPoint x="770" y="1300" />
              <mxPoint x="770" y="1710" />
            </Array>
          </mxGeometry>
        </mxCell>
        <mxCell id="DO8Ps27mjezgXxE4EoIR-325" value="retrieve and update" style="edgeLabel;html=1;align=center;verticalAlign=middle;resizable=0;points=[];" parent="DO8Ps27mjezgXxE4EoIR-278" vertex="1" connectable="0">
          <mxGeometry x="-0.6371" y="-1" relative="1" as="geometry">
            <mxPoint as="offset" />
          </mxGeometry>
        </mxCell>
        <mxCell id="DO8Ps27mjezgXxE4EoIR-282" style="edgeStyle=orthogonalEdgeStyle;rounded=0;orthogonalLoop=1;jettySize=auto;html=1;exitX=0.5;exitY=1;exitDx=0;exitDy=0;entryX=0;entryY=0.5;entryDx=0;entryDy=0;entryPerimeter=0;endArrow=none;endFill=0;dashed=1;" parent="1" source="DO8Ps27mjezgXxE4EoIR-204" target="DO8Ps27mjezgXxE4EoIR-250" edge="1">
          <mxGeometry relative="1" as="geometry">
            <Array as="points">
              <mxPoint x="1720" y="1535" />
            </Array>
          </mxGeometry>
        </mxCell>
        <mxCell id="DO8Ps27mjezgXxE4EoIR-283" value="update and retrieve data" style="edgeLabel;html=1;align=center;verticalAlign=middle;resizable=0;points=[];" parent="DO8Ps27mjezgXxE4EoIR-282" vertex="1" connectable="0">
          <mxGeometry x="-0.5769" relative="1" as="geometry">
            <mxPoint x="-140" y="201" as="offset" />
          </mxGeometry>
        </mxCell>
        <mxCell id="DO8Ps27mjezgXxE4EoIR-284" style="edgeStyle=orthogonalEdgeStyle;rounded=0;orthogonalLoop=1;jettySize=auto;html=1;entryX=0;entryY=0.5;entryDx=0;entryDy=0;entryPerimeter=0;endArrow=none;endFill=0;dashed=1;" parent="1" target="DO8Ps27mjezgXxE4EoIR-240" edge="1">
          <mxGeometry relative="1" as="geometry">
            <mxPoint x="1740" y="1150" as="sourcePoint" />
            <Array as="points">
              <mxPoint x="1740" y="2070" />
              <mxPoint x="850" y="2070" />
              <mxPoint x="850" y="1950" />
              <mxPoint x="835" y="1950" />
              <mxPoint x="835" y="1920" />
              <mxPoint x="820" y="1920" />
              <mxPoint x="820" y="1910" />
            </Array>
          </mxGeometry>
        </mxCell>
        <mxCell id="DO8Ps27mjezgXxE4EoIR-285" value="collect data" style="edgeLabel;html=1;align=center;verticalAlign=middle;resizable=0;points=[];" parent="DO8Ps27mjezgXxE4EoIR-284" vertex="1" connectable="0">
          <mxGeometry x="0.5911" y="2" relative="1" as="geometry">
            <mxPoint x="639" y="-362" as="offset" />
          </mxGeometry>
        </mxCell>
        <mxCell id="DO8Ps27mjezgXxE4EoIR-287" value="" style="rounded=0;whiteSpace=wrap;html=1;" parent="1" vertex="1">
          <mxGeometry x="2905" y="785" width="35" height="25" as="geometry" />
        </mxCell>
        <mxCell id="DO8Ps27mjezgXxE4EoIR-293" style="edgeStyle=orthogonalEdgeStyle;rounded=0;orthogonalLoop=1;jettySize=auto;html=1;exitX=0.75;exitY=1;exitDx=0;exitDy=0;entryX=0;entryY=0.5;entryDx=0;entryDy=0;entryPerimeter=0;endArrow=none;endFill=0;dashed=1;" parent="1" source="DO8Ps27mjezgXxE4EoIR-205" target="DO8Ps27mjezgXxE4EoIR-246" edge="1">
          <mxGeometry relative="1" as="geometry">
            <Array as="points">
              <mxPoint x="1955" y="1780" />
              <mxPoint x="1260" y="1780" />
            </Array>
          </mxGeometry>
        </mxCell>
        <mxCell id="DO8Ps27mjezgXxE4EoIR-295" value="process data" style="edgeLabel;html=1;align=center;verticalAlign=middle;resizable=0;points=[];fontSize=9;" parent="DO8Ps27mjezgXxE4EoIR-293" vertex="1" connectable="0">
          <mxGeometry x="-0.3141" y="2" relative="1" as="geometry">
            <mxPoint as="offset" />
          </mxGeometry>
        </mxCell>
        <mxCell id="DO8Ps27mjezgXxE4EoIR-296" value="" style="rounded=0;whiteSpace=wrap;html=1;" parent="1" vertex="1">
          <mxGeometry x="3497.5" y="785" width="35" height="25" as="geometry" />
        </mxCell>
        <mxCell id="DO8Ps27mjezgXxE4EoIR-298" value="" style="rounded=0;whiteSpace=wrap;html=1;" parent="1" vertex="1">
          <mxGeometry x="4077.5" y="780" width="35" height="25" as="geometry" />
        </mxCell>
        <mxCell id="DO8Ps27mjezgXxE4EoIR-312" style="edgeStyle=orthogonalEdgeStyle;rounded=0;orthogonalLoop=1;jettySize=auto;html=1;exitX=1;exitY=1;exitDx=0;exitDy=0;exitPerimeter=0;entryX=0.467;entryY=0.012;entryDx=0;entryDy=0;entryPerimeter=0;endArrow=none;endFill=0;dashed=1;" parent="1" source="DO8Ps27mjezgXxE4EoIR-66" target="DO8Ps27mjezgXxE4EoIR-19" edge="1">
          <mxGeometry relative="1" as="geometry" />
        </mxCell>
        <mxCell id="DO8Ps27mjezgXxE4EoIR-313" value="" style="rounded=0;whiteSpace=wrap;html=1;" parent="1" vertex="1">
          <mxGeometry x="3090" y="785" width="35" height="25" as="geometry" />
        </mxCell>
        <mxCell id="DO8Ps27mjezgXxE4EoIR-326" style="edgeStyle=orthogonalEdgeStyle;rounded=0;orthogonalLoop=1;jettySize=auto;html=1;exitX=0.25;exitY=1;exitDx=0;exitDy=0;entryX=0;entryY=0.5;entryDx=0;entryDy=0;entryPerimeter=0;endArrow=none;endFill=0;dashed=1;" parent="1" source="DO8Ps27mjezgXxE4EoIR-205" target="DO8Ps27mjezgXxE4EoIR-240" edge="1">
          <mxGeometry relative="1" as="geometry">
            <Array as="points">
              <mxPoint x="1925" y="2040" />
              <mxPoint x="830" y="2040" />
            </Array>
          </mxGeometry>
        </mxCell>
        <mxCell id="DO8Ps27mjezgXxE4EoIR-327" style="edgeStyle=orthogonalEdgeStyle;rounded=0;orthogonalLoop=1;jettySize=auto;html=1;exitX=0.25;exitY=1;exitDx=0;exitDy=0;entryX=0;entryY=0.5;entryDx=0;entryDy=0;entryPerimeter=0;endArrow=none;endFill=0;dashed=1;" parent="1" source="DO8Ps27mjezgXxE4EoIR-205" target="DO8Ps27mjezgXxE4EoIR-240" edge="1">
          <mxGeometry relative="1" as="geometry">
            <mxPoint x="1925" y="1150" as="sourcePoint" />
            <mxPoint x="860" y="1910" as="targetPoint" />
            <Array as="points">
              <mxPoint x="1925" y="2030" />
              <mxPoint x="810" y="2030" />
              <mxPoint x="810" y="1890" />
              <mxPoint x="820" y="1890" />
              <mxPoint x="820" y="1900" />
              <mxPoint x="830" y="1900" />
            </Array>
          </mxGeometry>
        </mxCell>
        <mxCell id="DO8Ps27mjezgXxE4EoIR-328" value="update data" style="edgeLabel;html=1;align=center;verticalAlign=middle;resizable=0;points=[];" parent="DO8Ps27mjezgXxE4EoIR-327" vertex="1" connectable="0">
          <mxGeometry x="-0.707" y="1" relative="1" as="geometry">
            <mxPoint as="offset" />
          </mxGeometry>
        </mxCell>
        <mxCell id="DO8Ps27mjezgXxE4EoIR-329" style="edgeStyle=orthogonalEdgeStyle;rounded=0;orthogonalLoop=1;jettySize=auto;html=1;exitX=1;exitY=0.5;exitDx=0;exitDy=0;entryX=0.134;entryY=0.195;entryDx=0;entryDy=0;dashed=1;endArrow=none;endFill=0;entryPerimeter=0;" parent="1" source="DO8Ps27mjezgXxE4EoIR-245" target="DO8Ps27mjezgXxE4EoIR-331" edge="1">
          <mxGeometry relative="1" as="geometry">
            <mxPoint x="1260" y="1830" as="sourcePoint" />
            <mxPoint x="1030" y="1160" as="targetPoint" />
            <Array as="points">
              <mxPoint x="1540" y="1830" />
              <mxPoint x="1540" y="1170" />
              <mxPoint x="1015" y="1170" />
              <mxPoint x="1015" y="1149" />
            </Array>
          </mxGeometry>
        </mxCell>
        <mxCell id="DO8Ps27mjezgXxE4EoIR-332" value="display real-time alert" style="edgeLabel;html=1;align=center;verticalAlign=middle;resizable=0;points=[];" parent="DO8Ps27mjezgXxE4EoIR-329" vertex="1" connectable="0">
          <mxGeometry x="-0.7753" y="-1" relative="1" as="geometry">
            <mxPoint x="-15" y="4" as="offset" />
          </mxGeometry>
        </mxCell>
        <mxCell id="DO8Ps27mjezgXxE4EoIR-330" value="" style="rounded=0;whiteSpace=wrap;html=1;" parent="1" vertex="1">
          <mxGeometry x="1005" y="1120" width="20" height="20" as="geometry" />
        </mxCell>
        <mxCell id="DO8Ps27mjezgXxE4EoIR-331" value="" style="shape=providedRequiredInterface;html=1;verticalLabelPosition=bottom;sketch=0;rotation=-90;" parent="1" vertex="1">
          <mxGeometry x="1010" y="1140" width="10" height="10" as="geometry" />
        </mxCell>
        <mxCell id="DO8Ps27mjezgXxE4EoIR-336" value="" style="rounded=0;whiteSpace=wrap;html=1;" parent="1" vertex="1">
          <mxGeometry x="910" y="1120" width="20" height="20" as="geometry" />
        </mxCell>
        <mxCell id="DO8Ps27mjezgXxE4EoIR-337" value="" style="shape=providedRequiredInterface;html=1;verticalLabelPosition=bottom;sketch=0;rotation=-90;" parent="1" vertex="1">
          <mxGeometry x="915" y="1140" width="10" height="10" as="geometry" />
        </mxCell>
        <mxCell id="DO8Ps27mjezgXxE4EoIR-338" style="edgeStyle=orthogonalEdgeStyle;rounded=0;orthogonalLoop=1;jettySize=auto;html=1;exitX=1;exitY=0.5;exitDx=0;exitDy=0;entryX=0;entryY=0.5;entryDx=0;entryDy=0;entryPerimeter=0;endArrow=none;endFill=0;dashed=1;" parent="1" source="DO8Ps27mjezgXxE4EoIR-243" target="DO8Ps27mjezgXxE4EoIR-337" edge="1">
          <mxGeometry relative="1" as="geometry">
            <Array as="points">
              <mxPoint x="1260" y="1935" />
              <mxPoint x="1260" y="1360" />
              <mxPoint x="920" y="1360" />
            </Array>
          </mxGeometry>
        </mxCell>
        <mxCell id="DO8Ps27mjezgXxE4EoIR-339" style="edgeStyle=orthogonalEdgeStyle;rounded=0;orthogonalLoop=1;jettySize=auto;html=1;exitX=1;exitY=0.5;exitDx=0;exitDy=0;entryX=0;entryY=0.5;entryDx=0;entryDy=0;entryPerimeter=0;endArrow=none;endFill=0;dashed=1;" parent="1" source="DO8Ps27mjezgXxE4EoIR-243" target="DO8Ps27mjezgXxE4EoIR-337" edge="1">
          <mxGeometry relative="1" as="geometry">
            <mxPoint x="1240" y="1935" as="sourcePoint" />
            <mxPoint x="920" y="1150" as="targetPoint" />
            <Array as="points">
              <mxPoint x="1370" y="1935" />
              <mxPoint x="1370" y="1350" />
              <mxPoint x="920" y="1350" />
            </Array>
          </mxGeometry>
        </mxCell>
        <mxCell id="DO8Ps27mjezgXxE4EoIR-340" value="google login" style="edgeLabel;html=1;align=center;verticalAlign=middle;resizable=0;points=[];" parent="DO8Ps27mjezgXxE4EoIR-339" vertex="1" connectable="0">
          <mxGeometry x="-0.9096" relative="1" as="geometry">
            <mxPoint x="8" as="offset" />
          </mxGeometry>
        </mxCell>
      </root>
    </mxGraphModel>
  </diagram>
</mxfile>
